<svg xmlns="http://www.w3.org/2000/svg" viewBox="455 558 300 290">
  <rect x="455" y="558" width="300" height="290" rx="48" fill="#08062D"/>
  <path fill="#7B7BFF" d="M747.9,791.4l-89.8-200.8c-2.1-4.7-4.9-8.5-8.4-11.3c-1.7-1.4-3.6-2.4-5.6-3.2c-2-0.7-4.1-1.1-6.2-1.1c-2.1,0-4.3,0.4-6.3,1.2c-3,1.1-5.8,3.1-8.1,5.6c-2.4,2.5-4.3,5.6-5.9,9.2l0,0.1l-95.6,223.2c-2.5,5.6-8.1,9.3-14.2,9.3h0l-0.1,0c-2.4,0-4.6-0.5-6.5-1.3c-2.9-1.3-5.4-3.4-7.1-6c-1.7-2.6-2.7-5.7-2.7-8.9c0-2.2,0.5-4.5,1.5-6.8l0-0.1l34.4-76.8l0.1-0.1c1.4-3.4,3.3-6,5.1-7.5c0.9-0.8,1.8-1.3,2.6-1.6c0.8-0.3,1.5-0.5,2.3-0.5l0.1,0l0.1,0h15.6l5.2-12.4h-20.8v0c-0.1,0-0.2,0-0.3,0c-2.4,0-4.8,0.5-6.9,1.4c-3.3,1.3-6.1,3.5-8.5,6.2c-2.4,2.7-4.3,5.9-5.8,9.5l0,0l-34.4,76.8l0,0c-1.8,3.9-2.6,8-2.6,11.9c0,7.6,3,14.7,8.1,19.9c2.5,2.6,5.6,4.8,9.1,6.3c3.5,1.5,7.4,2.4,11.4,2.4l0.1,0h0c11,0,21-6.6,25.5-16.6l0,0l63-145.1l32.6-78.3c1.4-3.3,3.2-5.5,4.8-6.8c0.8-0.6,1.6-1.1,2.3-1.3c0.7-0.3,1.3-0.4,2-0.4c0.6,0,1.3,0.1,2,0.4c1,0.4,2.2,1.1,3.4,2.4c1.2,1.3,2.5,3.1,3.5,5.5l89.8,200.8c1,2.3,1.5,4.6,1.5,6.9c0,4.4-1.8,8.6-4.8,11.8c-1.5,1.6-3.3,2.8-5.3,3.7c-2,0.9-4.2,1.4-6.7,1.4l0,0l-0.2,0c-6.5,0-12.5-3.7-15.3-9.6l-40.1-84.1l0,0c-3.7-8.1-8.7-14.4-14.6-18.6c-3-2.1-6.2-3.7-9.5-4.8c-3.3-1.1-6.8-1.6-10.3-1.6c-0.4,0-0.8,0-1.1,0l0,0h-31.6l-5.3,12.4h36.9l0.2,0c0.3,0,0.6,0,0.9,0c2.2,0,4.4,0.3,6.5,1c3.1,1,6.1,2.8,9,5.5c2.8,2.7,5.5,6.5,7.7,11.4l0.1,0.1l40.1,84.1c4.9,10.2,15.2,16.7,26.4,16.7c0.1,0,0.2,0,0.3,0l0,0c4.1,0,8.1-0.9,11.6-2.5c5.3-2.3,9.6-6.2,12.7-10.8c3-4.7,4.8-10.2,4.8-16C750.4,799.4,749.6,795.3,747.9,791.4z"/>
</svg>
